<svg xmlns="http://www.w3.org/2000/svg" id="livetype" width="119.66407" height="40" viewBox="0 0 119.66407 40">
  <title>Coming soon on the App Store</title>
  <g>
    <g>
      <g>
        <path d="M110.13477,0H9.53468c-.3667,0-.729,0-1.09473.002-.30615.002-.60986.00781-.91895.0127A13.21476,13.21476,0,0,0,5.5171.19141a6.66509,6.66509,0,0,0-1.90088.627A6.43779,6.43779,0,0,0,1.99757,1.99707,6.25844,6.25844,0,0,0,.81935,3.61816a6.60119,6.60119,0,0,0-.625,1.90332,12.993,12.993,0,0,0-.1792,2.002C.00587,7.83008.00489,8.1377,0,8.44434V31.5586c.00489.3105.00587.6113.01515.9219a12.99232,12.99232,0,0,0,.1792,2.0019,6.58756,6.58756,0,0,0,.625,1.9043A6.20778,6.20778,0,0,0,1.99757,38.001a6.27445,6.27445,0,0,0,1.61865,1.1787,6.70082,6.70082,0,0,0,1.90088.6308,13.45514,13.45514,0,0,0,2.0039.1768c.30909.0068.6128.0107.91895.0107C8.80567,40,9.168,40,9.53468,40H110.13477c.3594,0,.7246,0,1.084-.002.3047,0,.6172-.0039.9219-.0107a13.279,13.279,0,0,0,2-.1768,6.80432,6.80432,0,0,0,1.9082-.6308,6.27742,6.27742,0,0,0,1.6172-1.1787,6.39482,6.39482,0,0,0,1.1816-1.6143,6.60413,6.60413,0,0,0,.6191-1.9043,13.50643,13.50643,0,0,0,.1856-2.0019c.0039-.3106.0039-.6114.0039-.9219.0078-.3633.0078-.7246.0078-1.0938V9.53613c0-.36621,0-.72949-.0078-1.09179,0-.30664,0-.61426-.0039-.9209a13.5071,13.5071,0,0,0-.1856-2.002,6.6177,6.6177,0,0,0-.6191-1.90332,6.46619,6.46619,0,0,0-2.7988-2.7998,6.76754,6.76754,0,0,0-1.9082-.627,13.04394,13.04394,0,0,0-2-.17676c-.3047-.00488-.6172-.01074-.9219-.01269-.3594-.002-.7246-.002-1.084-.002Z" style="fill: #a6a6a6" />
        <path d="M8.44483,39.125c-.30468,0-.602-.0039-.90429-.0107a12.68714,12.68714,0,0,1-1.86914-.1631,5.88381,5.88381,0,0,1-1.65674-.5479,5.40573,5.40573,0,0,1-1.397-1.0166,5.32082,5.32082,0,0,1-1.02051-1.3965,5.72186,5.72186,0,0,1-.543-1.6572,12.41351,12.41351,0,0,1-.1665-1.875c-.00634-.2109-.01464-.9131-.01464-.9131V8.44434S.88185,7.75293.8877,7.5498a12.37039,12.37039,0,0,1,.16553-1.87207,5.7555,5.7555,0,0,1,.54346-1.6621A5.37349,5.37349,0,0,1,2.61183,2.61768,5.56543,5.56543,0,0,1,4.01417,1.59521a5.82309,5.82309,0,0,1,1.65332-.54394A12.58589,12.58589,0,0,1,7.543.88721L8.44532.875H111.21387l.9131.0127a12.38493,12.38493,0,0,1,1.8584.16259,5.93833,5.93833,0,0,1,1.6709.54785,5.59374,5.59374,0,0,1,2.415,2.41993,5.76267,5.76267,0,0,1,.5352,1.64892,12.995,12.995,0,0,1,.1738,1.88721c.0029.2832.0029.5874.0029.89014.0079.375.0079.73193.0079,1.09179V30.4648c0,.3633,0,.7178-.0079,1.0752,0,.3252,0,.6231-.0039.9297a12.73126,12.73126,0,0,1-.1709,1.8535,5.739,5.739,0,0,1-.54,1.67,5.48029,5.48029,0,0,1-1.0156,1.3857,5.4129,5.4129,0,0,1-1.3994,1.0225,5.86168,5.86168,0,0,1-1.668.5498,12.54218,12.54218,0,0,1-1.8692.1631c-.2929.0068-.5996.0107-.8974.0107l-1.084.002Z" />
      </g>
      <g id="_Group_" data-name="&lt;Group&gt;">
        <g id="_Group_2" data-name="&lt;Group&gt;">
          <g id="_Group_3" data-name="&lt;Group&gt;">
            <path id="_Path_" data-name="&lt;Path&gt;" d="M24.76888,20.30068a4.94881,4.94881,0,0,1,2.35656-4.15206,5.06566,5.06566,0,0,0-3.99116-2.15768c-1.67924-.17626-3.30719,1.00483-4.1629,1.00483-.87227,0-2.18977-.98733-3.6085-.95814a5.31529,5.31529,0,0,0-4.47292,2.72787c-1.934,3.34842-.49141,8.26947,1.3612,10.97608.9269,1.32535,2.01018,2.8058,3.42763,2.7533,1.38706-.05753,1.9051-.88448,3.5794-.88448,1.65876,0,2.14479.88448,3.591.8511,1.48838-.02416,2.42613-1.33124,3.32051-2.66914a10.962,10.962,0,0,0,1.51842-3.09251A4.78205,4.78205,0,0,1,24.76888,20.30068Z" style="fill: #fff" />
            <path id="_Path_2" data-name="&lt;Path&gt;" d="M22.03725,12.21089a4.87248,4.87248,0,0,0,1.11452-3.49062,4.95746,4.95746,0,0,0-3.20758,1.65961,4.63634,4.63634,0,0,0-1.14371,3.36139A4.09905,4.09905,0,0,0,22.03725,12.21089Z" style="fill: #fff" />
          </g>
        </g>
        <g>
          <path d="M42.30227,27.13965h-4.7334l-1.13672,3.35645H34.42727l4.4834-12.418h2.083l4.4834,12.418H43.438ZM38.0591,25.59082h3.752l-1.84961-5.44727h-.05176Z" style="fill: #fff" />
          <path d="M55.15969,25.96973c0,2.81348-1.50586,4.62109-3.77832,4.62109a3.0693,3.0693,0,0,1-2.84863-1.584h-.043v4.48438h-1.8584V21.44238H48.4302v1.50586h.03418a3.21162,3.21162,0,0,1,2.88281-1.60059C53.645,21.34766,55.15969,23.16406,55.15969,25.96973Zm-1.91016,0c0-1.833-.94727-3.03809-2.39258-3.03809-1.41992,0-2.375,1.23047-2.375,3.03809,0,1.82422.95508,3.0459,2.375,3.0459C52.30227,29.01563,53.24953,27.81934,53.24953,25.96973Z" style="fill: #fff" />
          <path d="M65.12453,25.96973c0,2.81348-1.50586,4.62109-3.77832,4.62109a3.0693,3.0693,0,0,1-2.84863-1.584h-.043v4.48438h-1.8584V21.44238H58.395v1.50586h.03418A3.21162,3.21162,0,0,1,61.312,21.34766C63.60988,21.34766,65.12453,23.16406,65.12453,25.96973Zm-1.91016,0c0-1.833-.94727-3.03809-2.39258-3.03809-1.41992,0-2.375,1.23047-2.375,3.03809,0,1.82422.95508,3.0459,2.375,3.0459C62.26711,29.01563,63.21438,27.81934,63.21438,25.96973Z" style="fill: #fff" />
          <path d="M71.71047,27.03613c.1377,1.23145,1.334,2.04,2.96875,2.04,1.56641,0,2.69336-.80859,2.69336-1.91895,0-.96387-.67969-1.541-2.28906-1.93652l-1.60937-.3877c-2.28027-.55078-3.33887-1.61719-3.33887-3.34766,0-2.14258,1.86719-3.61426,4.51855-3.61426,2.624,0,4.42285,1.47168,4.4834,3.61426h-1.876c-.1123-1.23926-1.13672-1.9873-2.63379-1.9873s-2.52148.75684-2.52148,1.8584c0,.87793.6543,1.39453,2.25488,1.79l1.36816.33594c2.54785.60254,3.60645,1.626,3.60645,3.44238,0,2.32324-1.85059,3.77832-4.79395,3.77832-2.75391,0-4.61328-1.4209-4.7334-3.667Z" style="fill: #fff" />
          <path d="M83.34621,19.2998v2.14258h1.72168v1.47168H83.34621v4.99121c0,.77539.34473,1.13672,1.10156,1.13672a5.80752,5.80752,0,0,0,.61133-.043v1.46289a5.10351,5.10351,0,0,1-1.03223.08594c-1.833,0-2.54785-.68848-2.54785-2.44434V22.91406H80.16262V21.44238H81.479V19.2998Z" style="fill: #fff" />
          <path d="M86.065,25.96973c0-2.84863,1.67773-4.63867,4.29395-4.63867,2.625,0,4.29492,1.79,4.29492,4.63867,0,2.85645-1.66113,4.63867-4.29492,4.63867C87.72609,30.6084,86.065,28.82617,86.065,25.96973Zm6.69531,0c0-1.9541-.89551-3.10742-2.40137-3.10742s-2.40039,1.16211-2.40039,3.10742c0,1.96191.89453,3.10645,2.40039,3.10645S92.76027,27.93164,92.76027,25.96973Z" style="fill: #fff" />
          <path d="M96.18606,21.44238h1.77246v1.541h.043a2.1594,2.1594,0,0,1,2.17773-1.63574,2.86616,2.86616,0,0,1,.63672.06934v1.73828a2.59794,2.59794,0,0,0-.835-.1123,1.87264,1.87264,0,0,0-1.93652,2.083v5.37012h-1.8584Z" style="fill: #fff" />
          <path d="M109.3843,27.83691c-.25,1.64355-1.85059,2.77148-3.89844,2.77148-2.63379,0-4.26855-1.76465-4.26855-4.5957,0-2.83984,1.64355-4.68164,4.19043-4.68164,2.50488,0,4.08008,1.7207,4.08008,4.46582v.63672h-6.39453v.1123a2.358,2.358,0,0,0,2.43555,2.56445,2.04834,2.04834,0,0,0,2.09082-1.27344Zm-6.28223-2.70215h4.52637a2.1773,2.1773,0,0,0-2.2207-2.29785A2.292,2.292,0,0,0,103.10207,25.13477Z" style="fill: #fff" />
        </g>
      </g>
    </g>
    <g id="coming-soon-label">
      <path d="M40.294980905619205 12.652973267866884 41.06759410801964 12.8481178396072Q40.82465902891435 13.799945444626296 40.19342607746863 14.29975450081833Q39.56219312602291 14.799563557010364 38.650190943807964 14.799563557010364Q37.7063284233497 14.799563557010364 37.114920894708135 14.415248226950354Q36.52351336606656 14.030932896890343 36.21486633933442 13.302127659574467Q35.90621931260229 12.573322422258592 35.90621931260229 11.73698854337152Q35.90621931260229 10.824986361156574 36.25469176213857 10.14596290234588Q36.60316421167485 9.466939443535187 37.24634478996181 9.114484451718493Q37.88952536824877 8.7620294599018 38.66213857064921 8.7620294599018Q39.53829787234042 8.7620294599018 40.135679214402614 9.208074195308237Q40.733060556464814 9.654118930714674 40.96803055100928 10.462575013638844L40.20736497545008 10.6417894162575Q40.00425531914894 10.00458265139116 39.61794871794872 9.713857064920894Q39.2316421167485 9.423131478450628 38.64620840152755 9.423131478450628Q37.97315875613748 9.423131478450628 37.521140207310424 9.745717403164212Q37.06912165848336 10.068303327877796 36.88592471358429 10.611920349154392Q36.702727768685214 11.155537370430988 36.702727768685214 11.733006001091107Q36.702727768685214 12.47774140752864 36.91977632296781 13.03330605564648Q37.13682487725041 13.58887070376432 37.59481723949809 13.863666121112928Q38.05280960174577 14.138461538461538 38.58647026732133 14.138461538461538Q39.235624659028915 14.138461538461538 39.68565193671577 13.764102564102563Q40.13567921440262 13.389743589743588 40.294980905619205 12.652973267866884ZM41.66099290780142 12.585270049099837Q41.66099290780142 11.410420076377523 42.314129841789416 10.844899072558647Q42.859738134206225 10.374959083469722 43.6442989634479 10.374959083469722Q44.5164757228587 10.374959083469722 45.07004909983634 10.94645390070922Q45.62362247681397 11.517948717948718 45.62362247681397 12.525531914893616Q45.62362247681397 13.341953082378614 45.37869612656847 13.809901800327332Q45.13376977632297 14.277850518276049 44.66582105837425 14.536715766503Q44.19787234042553 14.795581014729951 43.6442989634479 14.795581014729951Q42.75619203491544 14.795581014729951 42.20859247135843 14.22607746863066Q41.66099290780142 13.656573922531368 41.66099290780142 12.585270049099837ZM42.39776322967813 12.585270049099837Q42.39776322967813 13.397708674304418 42.75220949263503 13.801936715766502Q43.10665575559193 14.206164757228587 43.6442989634479 14.206164757228587Q44.17795962902346 14.206164757228587 44.53240589198036 13.799945444626296Q44.886852154937266 13.393726132024003 44.886852154937266 12.561374795417347Q44.886852154937266 11.776813966175668 44.530414620840155 11.372585924713583Q44.173977086743044 10.9683578832515 43.6442989634479 10.9683578832515Q43.10665575559193 10.9683578832515 42.75220949263503 11.370594653573377Q42.39776322967813 11.772831423895253 42.39776322967813 12.585270049099837ZM46.46393889798145 14.7V10.470540098199672H47.1051282051282V11.063938897981451Q47.304255319148936 10.75330060010911 47.63480632842335 10.564129841789416Q47.96535733769777 10.374959083469722 48.387506819421716 10.374959083469722Q48.85744680851064 10.374959083469722 49.15812875068194 10.570103655210039Q49.45881069285325 10.765248226950355 49.5822695035461 11.11571194762684Q50.08406983087834 10.374959083469722 50.8885433715221 10.374959083469722Q51.5177850518276 10.374959083469722 51.85630114566285 10.723431533006Q52.19481723949809 11.07190398254228 52.19481723949809 11.796726677577741V14.7H51.48194217130387V12.035679214402618Q51.48194217130387 11.60556464811784 51.41224768139662 11.416393889798144Q51.342553191489365 11.22722313147845 51.15935624659029 11.111729405346427Q50.97615930169122 10.996235679214402 50.72924168030551 10.996235679214402Q50.283196944899075 10.996235679214402 49.98848881614839 11.292935079105291Q49.69378068739771 11.589634478996182 49.69378068739771 12.242771412984178V14.7H48.97692307692308V11.952045826513912Q48.97692307692308 11.474140752864157 48.801691216584835 11.23518821603928Q48.62645935624659 10.996235679214402 48.22820512820513 10.996235679214402Q47.92553191489362 10.996235679214402 47.66865793780687 11.155537370430988Q47.41178396072013 11.314839061647572 47.296290234588106 11.621494817239498Q47.18079650845608 11.928150572831424 47.18079650845608 12.505619203491543V14.7ZM53.26213857064921 9.685979268957992V8.861593016912165H53.97899618112385V9.685979268957992ZM53.26213857064921 14.7V10.470540098199672H53.97899618112385V14.7ZM55.07021276595745 14.7V10.470540098199672H55.71538461538462V11.07190398254228Q56.18134206219313 10.374959083469722 57.06148390616476 10.374959083469722Q57.44380796508457 10.374959083469722 57.76440261865794 10.512356792144026Q58.08499727223132 10.649754500818329 58.2442989634479 10.872776868521548Q58.40360065466449 11.095799236224767 58.467321331151126 11.402454991816693Q58.50714675395527 11.601582105837425 58.50714675395527 12.099399890889252V14.7H57.790289143480635V12.127277686852153Q57.790289143480635 11.689198036006546 57.706655755591925 11.47214948172395Q57.62302236770322 11.255100927441353 57.40995635570104 11.125668303327878Q57.19689034369886 10.996235679214402 56.910147299509006 10.996235679214402Q56.45215493726133 10.996235679214402 56.119612656846705 11.28696126568467Q55.787070376432084 11.577686852154937 55.787070376432084 12.390125477359518V14.7ZM59.47490452809602 15.050463720676486 60.17184942716858 15.154009819967266Q60.21565739225314 15.47659574468085 60.414784506273875 15.62394980905619Q60.68161483906165 15.823076923076922 61.14358974358975 15.823076923076922Q61.64140752864157 15.823076923076922 61.91222040370977 15.623949809056192Q62.18303327877796 15.424822695035461 62.278614293507914 15.066393889798144Q62.334369885433716 14.84735406437534 62.330387343153305 14.146426623022368Q61.86044735406438 14.7 61.1595199127114 14.7Q60.287343153300604 14.7 59.809438079650846 14.07075831969449Q59.331533006001095 13.44151663938898 59.331533006001095 12.561374795417347Q59.331533006001095 11.956028368794325 59.5505728314239 11.444271685761047Q59.769612656846704 10.932515002727769 60.18578832515003 10.653737043098745Q60.60196399345336 10.374959083469722 61.16350245499182 10.374959083469722Q61.91222040370977 10.374959083469722 62.398090561920355 10.980305510092744V10.470540098199672H63.05919258046918V14.126513911620293Q63.05919258046918 15.11418439716312 62.85807419530824 15.526377523186033Q62.6569558101473 15.938570649208947 62.2208674304419 16.177523186033824Q61.7847790507365 16.4164757228587 61.14757228587016 16.4164757228587Q60.390889252591386 16.4164757228587 59.924931805782876 16.075968357883248Q59.45897435897436 15.7354609929078 59.47490452809602 15.050463720676486ZM60.0683033278778 12.509601745771958Q60.0683033278778 13.341953082378614 60.398854337152216 13.724277141298417Q60.729405346426624 14.10660120021822 61.22722313147845 14.10660120021822Q61.721058374249864 14.10660120021822 62.05559192580469 13.726268412438625Q62.390125477359526 13.345935624659027 62.390125477359526 12.533496999454446Q62.390125477359526 11.756901254773595 62.045635570103656 11.362629569012547Q61.70114566284779 10.9683578832515 61.21527550463721 10.9683578832515Q60.737370430987454 10.9683578832515 60.40283687943263 11.356655755591925Q60.0683033278778 11.74495362793235 60.0683033278778 12.509601745771958ZM66.12176759410802 13.437534097108564 66.83066012002183 13.326022913256955Q66.89039825422805 13.75215493726132 67.16320240043645 13.979159847244954Q67.43600654664485 14.206164757228587 67.92585924713585 14.206164757228587Q68.41969448990726 14.206164757228587 68.65864702673214 14.005046372067648Q68.89759956355702 13.803927986906709 68.89759956355702 13.533115111838516Q68.89759956355702 13.290180032733224 68.68652482269505 13.150791052918711Q68.5391707583197 13.055210038188761 67.95373704309876 12.90785597381342Q67.16519367157666 12.70872885979269 66.86052918712494 12.563366066557556Q66.55586470267322 12.418003273322421 66.39855428259685 12.161129296235679Q66.24124386252046 11.904255319148936 66.24124386252046 11.593617021276595Q66.24124386252046 11.310856519367157 66.37067648663394 11.069912711402072Q66.50010911074742 10.828968903436987 66.72313147845064 10.669667212220403Q66.89039825422805 10.54620840152755 67.1791325695581 10.460583742498637Q67.46786688488817 10.374959083469722 67.79841789416258 10.374959083469722Q68.2962356792144 10.374959083469722 68.67258592471359 10.518330605564648Q69.04893617021277 10.661702127659574 69.22815057283142 10.906628477905073Q69.4073649754501 11.151554828150573 69.47506819421713 11.561756683033279L68.77414075286417 11.657337697763229Q68.72635024549919 11.33076923076923 68.49735406437534 11.147572285870158Q68.26835788325151 10.964375340971085 67.85019094380797 10.964375340971085Q67.35635570103656 10.964375340971085 67.14528096017459 11.127659574468083Q66.93420621931261 11.290943807965084 66.93420621931261 11.509983633387888Q66.93420621931261 11.6493726132024 67.02182214948174 11.76088379705401Q67.10943807965086 11.876377523186033 67.29661756683034 11.952045826513912Q67.40414620840153 11.991871249318057 67.92984178941626 12.135242771412983Q68.69050736497546 12.33835242771413 68.99118930714675 12.467785051827605Q69.29187124931806 12.59721767594108 69.4631205673759 12.844135297326787Q69.63436988543373 13.091052918712492 69.63436988543373 13.457446808510637Q69.63436988543373 13.815875613747954 69.42528641571195 14.132487725040917Q69.21620294599019 14.449099836333879 68.82193126022915 14.622340425531915Q68.4276595744681 14.795581014729951 67.92984178941626 14.795581014729951Q67.10545553737043 14.795581014729951 66.67334969994545 14.453082378614294Q66.24124386252046 14.110583742498635 66.12176759410802 13.437534097108564ZM70.21980360065466 12.585270049099837Q70.21980360065466 11.410420076377523 70.87294053464267 10.844899072558647Q71.41854882705947 10.374959083469722 72.20310965630114 10.374959083469722Q73.07528641571194 10.374959083469722 73.62885979268958 10.94645390070922Q74.1824331696672 11.517948717948718 74.1824331696672 12.525531914893616Q74.1824331696672 13.341953082378614 73.93750681942171 13.809901800327332Q73.6925804691762 14.277850518276049 73.22463175122749 14.536715766503Q72.75668303327878 14.795581014729951 72.20310965630114 14.795581014729951Q71.31500272776869 14.795581014729951 70.76740316421167 14.22607746863066Q70.21980360065466 13.656573922531368 70.21980360065466 12.585270049099837ZM70.95657392253136 12.585270049099837Q70.95657392253136 13.397708674304418 71.31102018548827 13.801936715766502Q71.66546644844517 14.206164757228587 72.20310965630114 14.206164757228587Q72.7367703218767 14.206164757228587 73.0912165848336 13.799945444626296Q73.4456628477905 13.393726132024003 73.4456628477905 12.561374795417347Q73.4456628477905 11.776813966175668 73.08922531369339 11.372585924713583Q72.7327877795963 10.9683578832515 72.20310965630114 10.9683578832515Q71.66546644844517 10.9683578832515 71.31102018548827 11.370594653573377Q70.95657392253136 11.772831423895253 70.95657392253136 12.585270049099837ZM74.75591925804692 12.585270049099837Q74.75591925804692 11.410420076377523 75.40905619203492 10.844899072558647Q75.95466448445173 10.374959083469722 76.7392253136934 10.374959083469722Q77.6114020731042 10.374959083469722 78.16497545008184 10.94645390070922Q78.71854882705946 11.517948717948718 78.71854882705946 12.525531914893616Q78.71854882705946 13.341953082378614 78.47362247681397 13.809901800327332Q78.22869612656847 14.277850518276049 77.76074740861975 14.536715766503Q77.29279869067103 14.795581014729951 76.7392253136934 14.795581014729951Q75.85111838516094 14.795581014729951 75.30351882160393 14.22607746863066Q74.75591925804692 13.656573922531368 74.75591925804692 12.585270049099837ZM75.49268957992362 12.585270049099837Q75.49268957992362 13.397708674304418 75.84713584288053 13.801936715766502Q76.20158210583743 14.206164757228587 76.7392253136934 14.206164757228587Q77.27288597926896 14.206164757228587 77.62733224222586 13.799945444626296Q77.98177850518276 13.393726132024003 77.98177850518276 12.561374795417347Q77.98177850518276 11.776813966175668 77.62534097108565 11.372585924713583Q77.26890343698855 10.9683578832515 76.7392253136934 10.9683578832515Q76.20158210583743 10.9683578832515 75.84713584288053 11.370594653573377Q75.49268957992362 11.772831423895253 75.49268957992362 12.585270049099837ZM79.55886524822697 14.7V10.470540098199672H80.20403709765412V11.07190398254228Q80.66999454446264 10.374959083469722 81.55013638843427 10.374959083469722Q81.93246044735407 10.374959083469722 82.25305510092745 10.512356792144026Q82.57364975450083 10.649754500818329 82.73295144571742 10.872776868521548Q82.892253136934 11.095799236224767 82.95597381342063 11.402454991816693Q82.99579923622478 11.601582105837425 82.99579923622478 12.099399890889252V14.7H82.27894162575015V12.127277686852153Q82.27894162575015 11.689198036006546 82.19530823786144 11.47214948172395Q82.11167484997273 11.255100927441353 81.89860883797056 11.125668303327878Q81.68554282596837 10.996235679214402 81.39879978177852 10.996235679214402Q80.94080741953083 10.996235679214402 80.60826513911621 11.28696126568467Q80.2757228587016 11.577686852154937 80.2757228587016 12.390125477359518V14.7ZM86.09421713038735 12.585270049099837Q86.09421713038735 11.410420076377523 86.74735406437536 10.844899072558647Q87.29296235679216 10.374959083469722 88.07752318603383 10.374959083469722Q88.94969994544464 10.374959083469722 89.50327332242227 10.94645390070922Q90.0568466993999 11.517948717948718 90.0568466993999 12.525531914893616Q90.0568466993999 13.341953082378614 89.8119203491544 13.809901800327332Q89.5669939989089 14.277850518276049 89.09904528096018 14.536715766503Q88.63109656301147 14.795581014729951 88.07752318603383 14.795581014729951Q87.18941625750138 14.795581014729951 86.64181669394436 14.22607746863066Q86.09421713038735 13.656573922531368 86.09421713038735 12.585270049099837ZM86.83098745226405 12.585270049099837Q86.83098745226405 13.397708674304418 87.18543371522097 13.801936715766502Q87.53987997817786 14.206164757228587 88.07752318603383 14.206164757228587Q88.6111838516094 14.206164757228587 88.9656301145663 13.799945444626296Q89.3200763775232 13.393726132024003 89.3200763775232 12.561374795417347Q89.3200763775232 11.776813966175668 88.96363884342608 11.372585924713583Q88.60720130932899 10.9683578832515 88.07752318603383 10.9683578832515Q87.53987997817786 10.9683578832515 87.18543371522097 11.370594653573377Q86.83098745226405 11.772831423895253 86.83098745226405 12.585270049099837ZM90.8971631205674 14.7V10.470540098199672H91.54233496999456V11.07190398254228Q92.00829241680307 10.374959083469722 92.8884342607747 10.374959083469722Q93.27075831969451 10.374959083469722 93.59135297326789 10.512356792144026Q93.91194762684127 10.649754500818329 94.07124931805785 10.872776868521548Q94.23055100927444 11.095799236224767 94.29427168576106 11.402454991816693Q94.33409710856522 11.601582105837425 94.33409710856522 12.099399890889252V14.7H93.61723949809058V12.127277686852153Q93.61723949809058 11.689198036006546 93.53360611020187 11.47214948172395Q93.44997272231316 11.255100927441353 93.23690671031099 11.125668303327878Q93.0238406983088 10.996235679214402 92.73709765411895 10.996235679214402Q92.27910529187126 10.996235679214402 91.94656301145665 11.28696126568467Q91.61402073104203 11.577686852154937 91.61402073104203 12.390125477359518V14.7ZM99.26448445171852 14.058810692853246 99.3680305510093 14.69203491543917Q99.06535733769779 14.755755591925803 98.82640480087291 14.755755591925803Q98.43611565739228 14.755755591925803 98.22105837424988 14.63229678123295Q98.00600109110749 14.508837970540098 97.91838516093837 14.307719585379159Q97.83076923076925 14.10660120021822 97.83076923076925 13.461429350791052V11.028096017457719H97.30507364975452V10.470540098199672H97.83076923076925V9.423131478450628L98.54364429896347 8.993016912165848V10.470540098199672H99.26448445171852V11.028096017457719H98.54364429896347V13.501254773595198Q98.54364429896347 13.807910529187124 98.5814784506274 13.895526459356246Q98.61931260229134 13.983142389525367 98.70493726132025 14.034915439170756Q98.79056192034918 14.086688488816147 98.94986361156576 14.086688488816147Q99.0693398799782 14.086688488816147 99.26448445171852 14.058810692853246ZM99.96541189307149 14.7V8.861593016912165H100.68226950354612V10.956410256410255Q101.18406983087836 10.374959083469722 101.94871794871797 10.374959083469722Q102.4186579378069 10.374959083469722 102.76513911620296 10.560147299509001Q103.11162029459904 10.74533551554828 103.26096563011458 11.07190398254228Q103.41031096563013 11.398472449536278 103.41031096563013 12.01974904528096V14.7H102.6934533551555V12.01974904528096Q102.6934533551555 11.482105837424985 102.46047463175125 11.237179487179485Q102.227495908347 10.992253136933988 101.80136388434262 10.992253136933988Q101.48276050190945 10.992253136933988 101.20199127114023 11.157528641571194Q100.92122204037099 11.322804146208401 100.80174577195857 11.60556464811784Q100.68226950354612 11.888325150027278 100.68226950354612 12.386142935079105V14.7ZM107.39683578832518 13.3379705400982 108.1375886524823 13.429569012547736Q107.96235679214405 14.078723404255319 107.48843426077471 14.437152209492634Q107.01451172940537 14.795581014729951 106.27774140752867 14.795581014729951Q105.34980905619206 14.795581014729951 104.80619203491545 14.224086197490452Q104.26257501363887 13.652591380250954 104.26257501363887 12.621112929623568Q104.26257501363887 11.553791598472449 104.8121658483361 10.964375340971085Q105.3617566830333 10.374959083469722 106.23791598472452 10.374959083469722Q107.08619749045283 10.374959083469722 107.62384069830881 10.952427714129842Q108.16148390616478 11.529896344789961 108.16148390616478 12.577304964539007Q108.16148390616478 12.64102564102564 108.15750136388436 12.768466993998908H105.00332787779598Q105.04315330060014 13.465411893071467 105.39759956355704 13.835788325150027Q105.75204582651394 14.206164757228587 106.28172394980908 14.206164757228587Q106.67599563557013 14.206164757228587 106.95477359519916 13.999072558647025Q107.23355155482817 13.791980360065466 107.39683578832518 13.3379705400982ZM105.04315330060014 12.179050736497544H107.404800872886Q107.35701036552102 11.645390070921986 107.13398799781781 11.378559738134205Q106.79148936170215 10.964375340971085 106.24588106928535 10.964375340971085Q105.75204582651394 10.964375340971085 105.4155210038189 11.294926350245499Q105.07899618112387 11.625477359519913 105.04315330060014 12.179050736497544Z" fill="#fff" />
    </g>
  </g>
</svg>